<?xml version="1.0" standalone="no"?>
<!DOCTYPE svg PUBLIC "-//W3C//DTD SVG 20010904//EN"
 "http://www.w3.org/TR/2001/REC-SVG-20010904/DTD/svg10.dtd">
<svg version="1.0" xmlns="http://www.w3.org/2000/svg"
 width="1000.000000pt" height="1000.000000pt" viewBox="0 0 1000.000000 1000.000000"
 preserveAspectRatio="xMidYMid meet">
<metadata>
Created by potrace 1.11, written by Peter Selinger 2001-2013
</metadata>
<g transform="translate(0.000000,1000.000000) scale(0.100000,-0.100000)"
fill="#000000" stroke="none">
<path d="M4979 9986 c-2 -2 -29 -6 -59 -9 -79 -9 -194 -51 -264 -97 -67 -44
-156 -124 -156 -140 0 -5 -4 -10 -8 -10 -5 0 -17 -16 -28 -35 -10 -19 -22 -35
-27 -35 -4 0 -6 -4 -3 -9 3 -5 0 -14 -8 -20 -8 -7 -17 -23 -20 -37 l-7 -26
-22 29 c-96 124 -243 214 -386 238 -19 3 -38 8 -43 11 -4 3 -8 0 -8 -7 0 -7
-4 -8 -12 -2 -10 7 -73 10 -73 4 0 -1 -20 -4 -45 -6 -25 -2 -61 -11 -80 -19
-19 -8 -39 -15 -45 -16 -30 -5 -128 -72 -181 -125 -76 -75 -109 -127 -149
-232 l-32 -83 -63 45 c-35 25 -73 48 -84 51 -12 4 -30 14 -40 23 -15 13 -18
13 -11 1 8 -13 6 -13 -8 -2 -9 8 -21 11 -27 7 -5 -3 -10 -2 -10 3 0 21 -163
33 -245 19 -27 -5 -56 -9 -62 -9 -7 -1 -13 -5 -13 -10 0 -5 -4 -7 -8 -4 -10 6
-127 -52 -161 -79 -60 -50 -125 -125 -157 -182 -20 -34 -36 -66 -36 -70 -1 -4
-8 -14 -15 -21 -7 -8 -11 -18 -7 -23 3 -6 1 -15 -4 -22 -17 -20 -38 -157 -37
-239 l1 -76 -48 42 c-26 23 -73 55 -105 71 -32 17 -60 32 -63 35 -5 5 -16 8
-48 13 -9 1 -21 5 -27 9 -12 7 -181 3 -211 -5 -36 -9 -117 -53 -159 -87 -69
-55 -154 -186 -169 -262 -3 -13 -10 -39 -16 -58 -16 -48 -21 -234 -9 -295 6
-27 11 -59 13 -70 1 -12 6 -27 11 -35 6 -10 4 -12 -11 -5 -94 41 -149 53 -233
50 -47 -2 -96 -5 -108 -8 -32 -8 -96 -39 -111 -54 -7 -7 -17 -13 -21 -13 -10
0 -82 -71 -107 -106 -22 -30 -67 -115 -67 -124 0 -3 -4 -16 -9 -30 -22 -54
-29 -99 -33 -200 -5 -143 15 -254 66 -367 10 -24 19 -45 19 -47 0 -2 -15 -1
-32 3 -56 13 -200 5 -263 -13 -82 -25 -141 -60 -200 -120 -50 -52 -120 -168
-108 -180 3 -3 0 -6 -7 -6 -7 0 -11 -2 -8 -5 3 -3 0 -29 -7 -58 -14 -61 -11
-213 4 -231 6 -7 8 -16 5 -19 -4 -3 -3 -14 1 -24 8 -18 13 -33 18 -55 8 -39
75 -157 128 -228 44 -58 59 -85 53 -98 -4 -9 -8 -21 -9 -27 -2 -5 -11 -37 -21
-70 -10 -33 -19 -64 -20 -70 -1 -5 -9 -36 -18 -67 -10 -31 -19 -70 -22 -85 -3
-15 -7 -36 -10 -45 -3 -9 -7 -27 -9 -40 -3 -13 -9 -43 -15 -68 -5 -25 -12 -58
-15 -75 -3 -16 -9 -55 -14 -85 -10 -53 -16 -96 -27 -170 -3 -19 -7 -53 -8 -76
-2 -23 -6 -46 -10 -53 -4 -6 -1 -11 6 -11 8 0 9 -3 3 -8 -5 -4 -11 -18 -12
-32 -14 -190 -17 -290 -16 -480 1 -124 5 -259 8 -300 3 -41 7 -88 8 -105 1
-16 6 -35 10 -42 4 -6 3 -14 -3 -18 -6 -4 -7 -12 -1 -24 6 -9 9 -26 7 -36 -2
-11 1 -35 5 -55 4 -19 10 -57 13 -85 6 -43 12 -83 31 -190 2 -11 6 -31 9 -45
3 -14 8 -36 10 -50 3 -14 7 -34 10 -45 3 -11 11 -50 19 -87 8 -37 17 -71 20
-75 3 -5 8 -22 11 -37 5 -26 31 -125 42 -156 3 -8 5 -16 5 -17 0 -5 90 -268
99 -290 6 -13 14 -33 19 -45 93 -239 250 -553 374 -753 54 -87 155 -240 174
-265 7 -8 33 -44 60 -80 26 -36 50 -67 53 -70 3 -3 18 -23 35 -45 16 -22 34
-45 40 -51 5 -7 26 -31 45 -54 104 -125 295 -329 346 -369 15 -12 24 -21 21
-21 -4 0 33 -35 81 -77 48 -43 89 -80 92 -84 7 -9 263 -212 290 -229 12 -8 28
-20 34 -26 6 -6 25 -19 41 -29 17 -11 37 -25 45 -32 8 -7 56 -39 106 -71 50
-31 99 -63 110 -70 10 -6 34 -20 52 -29 17 -9 32 -21 32 -25 0 -5 4 -7 9 -4 5
3 14 -1 21 -9 7 -8 16 -12 21 -9 5 3 9 1 9 -4 0 -5 15 -15 33 -23 17 -7 34
-16 37 -19 3 -3 30 -18 60 -33 30 -15 62 -32 70 -37 21 -13 253 -120 270 -125
3 0 27 -11 54 -23 27 -12 53 -22 58 -22 5 0 23 -7 39 -16 17 -8 38 -17 47 -19
10 -2 55 -18 102 -35 47 -18 90 -33 95 -34 6 -2 35 -10 65 -20 30 -10 66 -20
79 -22 14 -3 29 -8 35 -12 6 -3 17 -7 26 -8 17 -3 27 -5 90 -23 25 -7 56 -15
70 -17 14 -3 33 -7 42 -10 9 -3 27 -7 40 -9 13 -3 37 -8 53 -11 17 -4 39 -8
50 -10 11 -2 31 -5 45 -9 14 -3 41 -8 60 -11 19 -3 62 -10 95 -16 33 -6 76
-12 95 -13 19 -1 36 -3 38 -5 1 -1 20 -4 42 -5 22 -1 41 -3 43 -5 11 -9 327
-24 502 -24 219 0 388 9 550 29 28 3 66 8 85 10 19 1 62 8 95 14 33 5 77 12
98 16 47 6 179 33 227 45 19 5 46 11 60 13 14 3 45 11 70 18 25 7 50 14 55 15
6 1 13 3 18 4 4 1 10 3 15 4 66 18 186 54 247 75 103 36 120 42 130 45 6 1 19
7 30 13 11 6 38 16 60 23 22 7 50 19 63 26 12 8 22 12 22 9 0 -4 12 0 28 8 15
8 47 23 72 33 25 10 48 23 52 29 4 5 8 7 8 3 0 -8 290 136 350 174 19 12 41
23 49 24 8 2 17 7 20 13 4 5 18 16 31 23 72 38 170 101 170 109 0 5 5 9 11 9
20 0 342 230 380 272 9 10 19 18 23 18 3 0 14 8 24 17 10 10 45 41 77 68 149
128 389 368 475 475 19 24 42 51 50 59 46 47 280 355 280 368 0 5 11 20 25 35
14 15 24 29 23 30 -1 2 11 23 28 48 17 25 61 97 98 160 37 63 74 126 82 140
45 75 189 385 239 510 31 80 60 154 65 165 18 44 108 334 116 375 3 14 12 50
20 80 8 30 17 64 19 75 3 11 8 34 12 50 4 17 6 33 5 37 -1 4 2 19 8 32 5 14
12 44 14 68 3 24 8 54 11 68 13 65 15 78 20 117 3 23 8 57 10 75 3 18 7 56 10
83 3 28 7 70 10 95 3 25 7 81 10 124 3 44 8 83 11 88 3 4 0 8 -6 8 -7 0 -8 5
-3 13 9 13 12 447 3 447 -3 0 -5 30 -6 68 -1 37 -4 103 -8 147 -4 44 -9 96
-11 115 -2 19 -6 53 -9 75 -4 22 -9 56 -12 75 -22 145 -47 270 -79 400 -14 58
-27 114 -29 125 -2 11 -4 20 -5 20 -2 0 -4 7 -6 15 -1 8 -14 53 -28 99 -19 61
-24 89 -16 102 5 11 14 19 19 19 6 0 10 7 10 15 0 8 4 15 9 15 21 0 133 201
145 260 3 14 11 48 18 75 13 47 16 171 5 225 -26 130 -86 227 -196 313 -27 22
-93 51 -153 68 -50 14 -210 19 -251 8 -25 -7 -28 -6 -21 9 26 61 63 175 59
182 -3 5 -2 11 3 14 12 7 17 61 16 204 -1 74 -5 137 -10 140 -5 4 -11 21 -13
37 -1 17 -7 33 -13 36 -5 3 -9 9 -8 13 2 12 -24 76 -32 76 -4 0 -8 5 -8 10 0
28 -122 160 -147 160 -7 0 -13 3 -13 8 0 16 -143 64 -166 55 -8 -3 -14 0 -14
6 0 6 -6 8 -12 6 -7 -2 -35 -6 -63 -8 -59 -6 -129 -24 -167 -43 -17 -9 -29
-10 -33 -4 -3 6 -1 10 6 10 7 0 10 2 7 5 -3 3 1 35 8 71 19 106 13 273 -13
344 -3 8 -8 23 -9 32 -6 30 -64 145 -79 158 -8 7 -15 16 -15 21 0 21 -125 125
-163 134 -15 4 -27 10 -27 14 0 4 -6 8 -12 8 -7 1 -27 6 -44 11 -34 11 -170 9
-219 -2 -77 -18 -240 -115 -251 -150 -12 -35 -20 3 -19 82 1 42 -4 96 -11 119
-7 22 -10 43 -7 46 2 3 -1 15 -7 27 -6 12 -13 30 -15 40 -6 29 -61 136 -92
177 -38 51 -96 107 -147 142 -40 28 -110 63 -131 66 -5 1 -17 5 -25 8 -79 33
-299 23 -347 -16 -7 -5 -13 -7 -13 -4 0 7 -97 -40 -115 -55 -5 -5 -23 -19 -40
-33 -16 -13 -33 -21 -37 -17 -3 4 -18 39 -33 77 -81 217 -287 385 -477 389
-16 1 -28 4 -28 7 0 13 -161 -6 -192 -22 -10 -5 -18 -8 -18 -5 0 9 -94 -36
-145 -69 -60 -39 -113 -87 -154 -138 -29 -37 -30 -37 -37 -15 -9 31 -85 145
-121 183 -70 75 -200 156 -285 180 -5 2 -9 4 -10 5 -2 1 -14 3 -28 5 -14 2
-53 7 -87 12 -35 6 -63 6 -63 1 0 -5 -8 -4 -19 1 -10 6 -20 9 -22 7z m-2125
-2961 c76 -34 333 -119 396 -130 18 -3 37 -8 42 -11 4 -3 17 -7 28 -10 11 -2
30 -6 43 -10 12 -3 31 -7 42 -9 11 -3 52 -12 90 -20 134 -30 231 -48 263 -48
6 0 12 -3 12 -6 0 -3 10 -6 23 -7 21 0 97 -10 147 -18 50 -9 106 -16 260 -31
14 -2 25 -4 25 -5 0 -1 64 -7 180 -15 264 -19 734 -24 1005 -11 234 12 261 13
318 20 28 3 73 8 100 11 86 9 199 23 252 31 14 2 41 5 60 8 19 3 51 7 70 11
19 3 47 8 63 10 15 3 42 8 60 11 17 3 42 8 54 9 11 2 29 6 40 9 18 5 71 16
108 21 11 2 20 4 20 5 0 2 5 3 100 24 39 8 83 19 98 25 15 6 27 7 27 4 0 -4 5
-2 12 5 7 7 19 12 28 12 9 0 49 11 90 25 41 14 80 27 85 29 66 19 120 38 161
56 63 29 110 35 143 18 33 -17 45 -31 78 -93 46 -90 234 -370 263 -395 3 -3
13 -14 21 -26 20 -29 88 -110 124 -148 17 -18 45 -49 63 -69 17 -21 32 -36 32
-34 0 2 30 -25 66 -60 60 -57 245 -203 258 -203 3 0 29 -15 58 -33 45 -28 96
-53 193 -93 11 -4 25 -8 30 -9 6 0 16 -4 22 -8 25 -16 164 -36 254 -37 100 -2
164 5 205 20 13 5 24 7 24 4 0 -2 9 0 19 6 17 9 20 6 27 -23 4 -17 7 -35 6
-39 -1 -5 2 -8 6 -8 4 0 8 -8 9 -17 0 -10 8 -52 18 -93 9 -41 19 -84 20 -95
14 -83 23 -130 25 -130 3 0 9 -44 14 -105 3 -25 5 -45 7 -45 1 0 3 -16 4 -35
2 -19 6 -51 9 -70 25 -161 26 -676 1 -870 -6 -47 -16 -129 -20 -160 -2 -14 -6
-43 -9 -65 -2 -22 -12 -74 -20 -115 -8 -41 -18 -90 -21 -109 -3 -19 -8 -38
-11 -43 -3 -5 -7 -19 -9 -31 -2 -12 -6 -33 -9 -47 -4 -14 -8 -34 -10 -45 -9
-39 -74 -251 -101 -325 -14 -41 -28 -79 -29 -85 -4 -15 -16 -46 -35 -90 -10
-22 -31 -71 -47 -110 -15 -38 -33 -73 -39 -77 -5 -4 -6 -8 -2 -8 5 0 -5 -26
-22 -57 -17 -31 -31 -61 -31 -66 0 -6 -7 -18 -16 -28 -8 -9 -17 -23 -18 -31
-2 -12 -15 -38 -43 -83 -7 -11 -16 -27 -20 -35 -31 -63 -163 -273 -175 -278
-5 -2 -8 -8 -8 -13 0 -13 -167 -242 -215 -295 -5 -6 -28 -33 -50 -60 -98 -118
-302 -327 -429 -439 -38 -33 -74 -65 -80 -70 -6 -6 -31 -26 -56 -45 -25 -19
-47 -37 -50 -40 -3 -3 -43 -34 -90 -68 -47 -34 -89 -65 -95 -69 -13 -11 -126
-85 -147 -98 -9 -5 -50 -30 -90 -55 -112 -69 -122 -74 -293 -159 -187 -92
-221 -108 -335 -151 -47 -17 -97 -38 -112 -46 -16 -9 -28 -13 -28 -10 0 3 -29
-6 -65 -19 -36 -13 -65 -21 -65 -19 0 3 -14 -3 -31 -11 -17 -9 -37 -14 -45
-11 -8 3 -14 1 -14 -3 0 -5 -18 -12 -40 -16 -22 -4 -42 -11 -46 -16 -3 -5 -9
-7 -13 -5 -4 3 -25 1 -46 -5 -20 -6 -47 -13 -59 -15 -11 -3 -25 -6 -31 -8 -5
-2 -28 -6 -50 -11 -43 -8 -63 -12 -97 -20 -28 -6 -95 -17 -128 -20 -14 -2 -25
-4 -25 -5 0 -3 -28 -7 -95 -14 -36 -3 -81 -8 -100 -11 -129 -14 -213 -18 -430
-17 -135 0 -274 3 -310 5 -97 8 -170 16 -215 24 -22 4 -46 6 -52 4 -7 -1 -22
3 -34 10 -17 9 -20 8 -14 -2 6 -8 4 -10 -5 -4 -13 8 -69 18 -107 19 -13 1 -23
4 -23 8 0 4 -8 6 -17 6 -23 -1 -52 5 -198 41 -66 16 -123 27 -127 25 -5 -3 -8
0 -8 5 0 6 -8 11 -17 11 -10 0 -47 10 -83 21 -36 11 -69 22 -75 23 -10 3 -23
8 -62 23 -10 3 -21 7 -25 8 -5 2 -10 4 -13 5 -3 1 -9 4 -15 5 -5 1 -11 3 -12
5 -2 1 -10 3 -18 5 -32 7 -225 89 -350 148 -36 17 -67 31 -70 31 -3 1 -10 4
-15 8 -6 4 -40 22 -75 41 -146 76 -313 176 -318 189 -2 5 -8 8 -13 8 -7 0
-125 76 -139 90 -3 3 -48 37 -100 76 -52 39 -106 81 -120 93 -14 11 -29 24
-35 28 -96 74 -418 388 -473 462 -15 20 -38 47 -52 61 -14 14 -38 43 -54 65
-16 22 -36 47 -43 55 -24 26 -68 86 -108 146 -22 33 -43 61 -46 64 -10 9 -119
179 -119 187 0 3 -6 14 -14 22 -39 44 -296 561 -296 596 0 3 -9 25 -19 48 -11
24 -23 56 -27 72 -4 17 -10 35 -14 40 -5 6 -12 26 -18 45 -6 19 -26 87 -45
150 -19 63 -38 129 -42 145 -4 17 -9 37 -11 45 -4 14 -42 189 -48 220 -7 34
-17 93 -22 128 -10 68 -13 87 -19 142 -3 30 -8 66 -11 80 -5 31 -17 245 -18
323 0 31 -4 57 -9 57 -4 0 -3 9 3 20 8 15 8 20 -2 21 -10 0 -10 2 -1 6 10 3
10 10 2 25 -6 11 -7 18 -2 15 5 -3 9 34 9 81 1 147 15 307 40 482 3 19 7 49 9
65 3 26 13 79 40 210 3 17 11 48 16 70 5 22 12 51 16 65 3 14 5 33 5 43 0 9 3
17 9 17 5 0 9 7 9 15 0 18 10 18 70 4 25 -6 54 -13 65 -15 25 -5 213 -6 240 0
11 2 40 7 64 11 24 4 59 14 77 21 19 8 36 14 39 14 3 0 21 7 41 15 20 8 38 15
40 15 12 0 105 47 141 72 23 15 44 28 47 28 6 0 102 67 122 85 7 5 31 26 55
45 89 71 286 276 371 385 12 17 28 37 35 45 45 57 83 112 83 119 0 5 3 11 8
13 12 5 97 138 149 233 64 117 113 137 217 90z"/>
<path d="M3006 5262 c-2 -1 -26 -4 -53 -7 -42 -3 -69 -7 -133 -20 -132 -27
-307 -108 -430 -199 -80 -60 -86 -65 -159 -136 -83 -81 -136 -147 -152 -185
-36 -91 28 -212 107 -202 32 5 94 44 94 59 0 7 123 133 180 183 20 18 90 65
96 65 2 0 -1 -10 -8 -22 -7 -13 -13 -25 -13 -28 -1 -3 -8 -21 -17 -41 -33 -75
-40 -114 -40 -224 0 -179 66 -314 218 -444 35 -30 155 -91 166 -85 4 3 8 1 8
-4 0 -5 6 -9 13 -10 6 0 37 -5 67 -10 54 -10 157 -8 215 3 49 9 138 46 173 72
17 13 32 21 32 17 0 -14 138 133 144 154 4 12 12 22 17 22 5 0 9 7 9 15 0 8 5
15 12 15 6 0 8 3 5 7 -4 3 -3 11 2 17 15 18 42 117 48 171 2 28 6 59 7 70 2
11 -1 28 -6 38 -6 12 -5 17 4 17 8 0 9 3 3 8 -5 4 -11 16 -12 27 -6 63 -53
181 -92 228 -10 12 -10 17 -2 17 13 0 74 -40 79 -52 2 -5 8 -8 13 -8 16 0 129
-106 212 -198 58 -64 97 -72 153 -32 48 34 64 119 35 185 -29 66 -172 216
-271 285 -19 13 -37 27 -40 31 -10 14 -230 132 -230 123 0 -2 -12 2 -27 10
-40 20 -187 55 -263 62 -77 7 -160 10 -164 6z"/>
<path d="M6889 5260 c-19 -3 -49 -6 -66 -5 -18 0 -33 -4 -33 -9 0 -5 -2 -7 -5
-4 -3 3 -31 -1 -63 -9 -31 -7 -66 -16 -77 -18 -44 -10 -187 -73 -195 -86 -3
-5 -15 -10 -27 -12 -11 -1 -28 -11 -37 -20 -10 -9 -21 -17 -26 -17 -5 0 -15
-6 -22 -13 -7 -7 -29 -24 -48 -37 -79 -55 -202 -178 -258 -258 -41 -57 -32
-171 16 -209 53 -42 107 -34 156 24 71 86 220 222 244 223 6 0 12 4 12 9 0 5
8 11 18 15 9 3 23 9 31 12 8 4 4 -8 -10 -27 -13 -19 -24 -36 -24 -39 -1 -3 -6
-15 -13 -28 -30 -53 -56 -177 -54 -252 1 -46 10 -115 18 -135 37 -98 49 -125
80 -170 39 -59 111 -129 180 -173 21 -13 53 -28 69 -32 6 -1 18 -6 28 -12 10
-5 26 -11 35 -13 9 -2 36 -8 59 -13 63 -14 235 -4 267 16 6 3 16 7 22 8 6 1
29 10 50 20 283 130 408 469 278 753 -19 41 -34 75 -34 77 0 2 28 -17 63 -43
55 -41 139 -122 246 -237 40 -43 83 -48 125 -15 58 45 75 143 36 206 -44 73
-180 210 -285 288 -22 17 -42 32 -45 35 -3 3 -15 11 -27 18 -13 6 -33 18 -45
25 -13 6 -26 16 -29 20 -3 5 -9 8 -13 8 -10 -1 -101 43 -108 54 -4 6 -8 7 -8
2 0 -4 -17 0 -37 8 -43 18 -151 47 -180 48 -7 0 -13 3 -13 6 0 3 -19 6 -42 5
-24 0 -47 1 -52 4 -12 7 -118 8 -157 2z"/>
<path d="M2714 3358 c-3 -5 -11 -8 -17 -6 -48 8 -154 -90 -180 -167 -15 -41
-15 -119 -2 -172 3 -13 7 -32 10 -43 8 -39 46 -175 52 -190 3 -8 7 -20 8 -26
14 -63 190 -445 214 -464 3 -3 24 -34 45 -70 22 -36 42 -67 45 -70 3 -3 41
-48 83 -101 85 -105 230 -248 324 -318 32 -25 64 -50 69 -55 12 -13 43 -33 65
-43 8 -4 17 -9 20 -13 12 -15 159 -98 164 -93 3 4 6 2 6 -4 0 -5 24 -20 53
-34 28 -13 55 -28 59 -34 4 -5 8 -6 8 -1 0 4 10 2 23 -6 25 -16 211 -90 272
-108 22 -7 47 -16 55 -20 8 -4 40 -13 70 -20 30 -7 60 -16 65 -19 6 -4 26 -8
45 -10 19 -2 37 -6 40 -10 3 -3 14 -7 25 -7 32 -2 83 -12 92 -17 4 -3 32 -8
62 -12 30 -4 63 -9 75 -11 12 -2 38 -5 59 -6 20 -1 37 -4 37 -7 0 -8 128 -13
345 -13 208 -1 355 5 355 13 0 3 10 5 23 6 12 0 46 3 76 7 53 8 62 9 131 23
19 4 40 8 45 8 6 1 12 3 15 4 3 2 14 4 25 6 11 2 29 6 40 8 11 3 49 12 85 21
84 20 281 85 298 98 6 6 12 8 12 4 0 -3 26 6 58 20 96 44 122 54 128 53 4 0
10 3 13 8 3 4 45 28 94 53 48 24 87 48 87 52 0 5 3 7 8 6 7 -2 107 60 140 87
10 8 46 36 82 62 70 52 264 240 322 313 54 66 91 115 105 136 49 74 98 154
120 197 15 29 30 54 33 57 6 5 45 90 45 100 1 3 13 31 28 63 15 32 27 64 27
72 0 7 4 16 9 19 9 6 33 92 31 110 -1 5 3 12 9 15 5 4 12 19 15 34 2 14 7 30
9 34 3 5 8 24 11 43 3 19 12 59 20 87 28 105 9 197 -58 271 -35 38 -101 79
-120 74 -4 -2 -13 1 -20 6 -27 21 -152 2 -206 -32 -55 -34 -183 -88 -240 -101
-8 -2 -45 -13 -83 -24 -37 -11 -70 -20 -72 -20 -3 0 -18 -2 -33 -5 -15 -4 -36
-8 -47 -10 -11 -3 -40 -9 -65 -14 -25 -6 -65 -14 -90 -17 -24 -4 -47 -8 -50
-10 -6 -3 -100 -17 -127 -18 -7 0 -13 -5 -13 -10 0 -5 -6 -4 -13 2 -8 6 -17 8
-21 4 -7 -8 -7 -8 -86 -17 -30 -3 -66 -8 -80 -10 -31 -6 -111 -16 -170 -21
-25 -3 -70 -7 -100 -11 -130 -14 -253 -24 -485 -40 -128 -9 -490 -9 -625 0
-145 10 -223 15 -280 20 -25 3 -74 7 -110 10 -36 2 -81 7 -100 10 -19 2 -60 7
-90 10 -30 4 -80 9 -110 12 -30 4 -66 8 -80 9 -14 2 -25 4 -25 5 0 1 -16 3
-35 5 -19 1 -53 5 -75 10 -22 4 -53 9 -70 11 -40 4 -62 8 -175 29 -52 10 -103
18 -112 19 -10 0 -18 4 -18 9 0 4 -4 6 -8 3 -9 -5 -170 33 -272 65 -76 24
-121 43 -170 69 -51 28 -101 51 -124 57 -37 9 -127 10 -132 1z m566 -712 c19
-4 46 -9 60 -12 14 -2 45 -9 70 -14 25 -5 61 -12 80 -14 19 -2 42 -6 50 -9 14
-6 53 -11 150 -23 48 -5 85 -11 85 -14 0 -1 16 -3 35 -5 19 -1 55 -5 80 -8
141 -19 203 -25 294 -32 38 -3 81 -7 95 -10 28 -4 177 -16 256 -20 28 -2 50
-4 50 -5 0 -13 582 -18 760 -6 55 4 127 9 160 11 33 2 87 6 120 9 33 3 89 8
125 11 36 3 79 8 95 10 17 2 62 7 100 10 39 4 81 8 94 10 14 3 51 7 84 10 32
4 68 8 80 11 12 2 42 7 67 10 41 5 95 12 204 30 21 3 48 8 60 10 31 7 87 16
114 18 12 0 22 5 22 10 0 5 2 7 5 4 3 -3 31 1 63 8 31 8 63 14 70 14 14 0 -18
-62 -75 -143 -18 -26 -33 -52 -33 -57 0 -6 -3 -10 -7 -10 -5 0 -19 -17 -33
-37 -42 -62 -220 -234 -310 -299 -74 -54 -263 -168 -279 -169 -3 -1 -21 -9
-38 -18 -18 -10 -33 -14 -33 -11 0 4 -8 0 -17 -8 -10 -8 -38 -21 -63 -28 -25
-7 -49 -17 -55 -21 -11 -7 -108 -37 -172 -53 -13 -3 -31 -8 -40 -11 -125 -33
-184 -44 -255 -48 -10 -1 -18 -4 -18 -7 0 -3 -12 -5 -27 -6 -16 0 -62 -4 -103
-9 -89 -9 -400 -14 -400 -6 0 3 -26 7 -58 7 -52 1 -92 6 -177 19 -16 2 -43 7
-60 9 -16 3 -63 12 -104 21 -40 10 -80 19 -90 20 -9 2 -16 4 -16 5 0 1 -9 3
-20 5 -11 2 -47 14 -80 25 -33 11 -67 22 -75 24 -58 15 -327 137 -340 155 -3
4 -13 10 -23 14 -44 16 -225 157 -310 241 -88 85 -208 234 -238 294 -7 15 -21
38 -31 51 -24 32 -24 65 0 53 9 -5 33 -12 52 -16z"/>
</g>
</svg>
