<?xml version="1.0" standalone="no"?>
<!DOCTYPE svg PUBLIC "-//W3C//DTD SVG 20010904//EN"
 "http://www.w3.org/TR/2001/REC-SVG-20010904/DTD/svg10.dtd">
<svg version="1.0" xmlns="http://www.w3.org/2000/svg"
 width="500.000000pt" height="500.000000pt" viewBox="0 0 500.000000 500.000000"
 preserveAspectRatio="xMidYMid meet">
<metadata>
Created by potrace 1.11, written by Peter Selinger 2001-2013
</metadata>
<g transform="translate(0.000000,500.000000) scale(0.100000,-0.100000)"
fill="#000000" stroke="none">
<path d="M2450 4973 c-89 -15 -173 -69 -221 -144 l-32 -49 -44 41 c-95 87
-225 109 -328 55 -60 -31 -136 -125 -158 -193 -3 -10 -17 -5 -37 11 -64 51
-183 65 -267 29 -45 -18 -120 -88 -143 -133 -25 -50 -42 -118 -42 -167 l1 -42
-47 34 c-116 83 -255 60 -326 -53 -44 -71 -62 -173 -46 -261 4 -23 6 -41 5
-41 -1 0 -15 4 -31 10 -54 17 -95 19 -143 4 -98 -29 -165 -134 -165 -259 0
-77 6 -116 23 -158 6 -16 11 -31 11 -35 0 -4 -33 -7 -73 -7 -60 -1 -79 -5
-112 -27 -63 -40 -90 -73 -107 -130 -30 -95 -12 -189 53 -287 l40 -60 -25 -93
c-14 -51 -27 -104 -30 -118 -15 -80 -26 -139 -30 -165 -27 -158 -27 -545 -1
-676 3 -13 7 -40 10 -59 23 -176 117 -464 210 -650 66 -131 217 -371 270 -426
5 -6 35 -40 65 -75 304 -352 735 -618 1186 -732 55 -14 115 -28 134 -32 116
-21 152 -26 215 -32 113 -11 433 -8 525 6 109 16 119 17 215 37 155 31 365
106 545 196 514 255 926 705 1135 1240 45 116 109 332 120 406 3 21 7 47 9 57
4 24 13 83 23 150 9 64 9 423 0 495 -16 127 -30 203 -63 337 l-35 142 21 23
c12 13 35 52 52 86 27 54 32 75 32 140 0 100 -31 162 -106 211 -44 29 -62 34
-121 37 -38 2 -71 5 -73 7 -2 2 3 24 12 48 11 28 17 76 17 134 1 79 -2 97 -26
144 -33 64 -77 105 -132 124 -44 15 -126 13 -157 -4 -26 -14 -29 -9 -19 27 23
83 -7 222 -62 289 -81 98 -235 104 -333 14 l-21 -20 -5 68 c-9 122 -72 220
-176 274 -79 40 -208 25 -281 -32 l-24 -20 -27 58 c-89 189 -301 236 -454 101
l-53 -47 -32 48 c-35 55 -81 93 -144 121 -43 19 -132 30 -177 23z m-1014
-1460 c22 -9 41 -17 44 -18 3 -1 39 -12 80 -25 41 -13 82 -25 90 -26 8 -1 33
-6 55 -12 97 -27 230 -49 394 -67 265 -30 660 -23 931 16 65 9 111 17 240 43
21 4 181 49 215 60 10 3 37 14 97 37 38 15 59 0 102 -74 153 -261 374 -461
566 -512 43 -11 181 -14 219 -4 14 4 23 -20 50 -136 23 -101 35 -237 35 -400
0 -173 -8 -255 -40 -415 -133 -665 -602 -1233 -1234 -1493 -129 -53 -313 -106
-425 -122 -22 -3 -46 -8 -53 -10 -26 -9 -182 -19 -302 -19 -113 0 -297 11
-310 19 -3 2 -21 6 -40 9 -174 27 -407 104 -571 186 -82 42 -213 121 -217 132
-2 4 -8 8 -14 8 -21 0 -188 138 -293 244 -147 148 -166 170 -263 315 -170 255
-280 536 -328 841 -24 152 -24 471 0 610 3 14 7 39 10 55 3 17 7 41 10 55 28
127 29 131 45 125 33 -13 170 -14 217 -1 143 38 296 148 419 301 22 28 43 52
46 55 10 9 87 126 112 171 19 34 54 67 73 69 1 0 19 -8 40 -17z"/>
<path d="M1548 2645 c-1 -1 -30 -5 -63 -9 -136 -13 -246 -68 -357 -177 -72
-70 -78 -79 -78 -117 0 -31 5 -45 22 -56 12 -9 28 -16 34 -16 6 0 46 34 89 75
42 41 81 75 86 75 5 0 2 -15 -8 -32 -13 -24 -18 -56 -18 -118 0 -102 19 -146
90 -208 140 -123 349 -81 436 88 32 61 33 177 3 238 -32 64 -7 54 82 -33 47
-47 83 -74 91 -70 8 3 18 5 23 5 14 0 32 59 26 86 -7 28 -135 164 -154 164 -6
0 -17 6 -24 13 -33 32 -134 71 -214 82 -21 3 -44 8 -51 10 -6 2 -13 2 -15 0z"/>
<path d="M3468 2645 c-2 -1 -30 -5 -63 -8 -125 -13 -241 -70 -341 -171 -79
-79 -93 -122 -54 -164 30 -32 46 -28 95 26 42 46 143 126 133 106 -49 -102
-58 -183 -30 -261 22 -63 105 -145 166 -166 70 -24 173 -17 229 16 48 29 98
80 122 127 35 68 33 179 -5 249 -21 40 8 21 86 -54 96 -93 121 -96 144 -16 7
25 4 36 -19 68 -58 80 -190 179 -281 212 -34 12 -177 40 -182 36z"/>
<path d="M1355 1697 c-43 -14 -74 -45 -86 -87 -9 -30 -7 -53 11 -126 143 -573
680 -907 1370 -852 137 12 319 58 446 114 57 25 194 101 204 113 3 3 23 19 45
36 163 120 309 345 370 570 26 95 25 146 -2 183 -44 60 -118 71 -200 28 -87
-46 -263 -89 -451 -110 -31 -4 -66 -9 -77 -10 -11 -2 -54 -7 -95 -11 -41 -3
-91 -8 -110 -11 -19 -3 -100 -7 -180 -10 -79 -2 -147 -5 -150 -5 -3 -1 -8 -1
-12 0 -4 0 -40 3 -80 6 -128 9 -212 15 -248 20 -19 3 -57 7 -85 10 -85 9 -228
31 -322 49 -64 13 -155 42 -205 67 -69 33 -103 39 -143 26z m410 -371 c23 -4
52 -8 65 -11 30 -6 73 -11 245 -30 119 -13 320 -27 410 -28 50 0 273 11 330
17 17 2 64 7 105 10 41 4 86 9 100 11 14 2 50 7 80 10 30 4 64 9 75 11 11 2
39 7 62 10 23 3 67 11 98 19 65 15 65 15 12 -66 -100 -154 -276 -277 -486
-339 -89 -26 -94 -27 -223 -46 -106 -15 -296 -2 -443 30 -125 26 -302 111
-389 186 -78 67 -196 212 -196 240 0 5 26 2 58 -5 31 -7 75 -16 97 -19z"/>
</g>
</svg>
