<?xml version="1.0" standalone="no"?>
<!DOCTYPE svg PUBLIC "-//W3C//DTD SVG 20010904//EN"
 "http://www.w3.org/TR/2001/REC-SVG-20010904/DTD/svg10.dtd">
<svg version="1.0" xmlns="http://www.w3.org/2000/svg"
 width="500.000000pt" height="500.000000pt" viewBox="0 0 500.000000 500.000000"
 preserveAspectRatio="xMidYMid meet">
<metadata>
Created by potrace 1.11, written by Peter Selinger 2001-2013
</metadata>
<g transform="translate(0.000000,500.000000) scale(0.100000,-0.100000)"
fill="#000000" stroke="none">
<path d="M2418 4989 c-93 -21 -175 -106 -218 -223 l-11 -29 -23 42 c-51 97
-141 157 -231 154 -61 -2 -71 -4 -113 -27 -68 -35 -139 -134 -157 -214 l-7
-33 -44 41 c-77 71 -151 91 -239 65 -120 -35 -214 -175 -218 -327 -1 -33 -8
-35 -31 -9 -10 11 -41 29 -69 41 -185 80 -383 -114 -334 -325 6 -22 15 -46 21
-54 9 -12 7 -13 -9 -7 -129 51 -259 0 -328 -129 -18 -33 -22 -57 -22 -131 0
-85 2 -94 32 -142 l32 -52 -37 6 c-47 7 -51 7 -87 -1 -75 -16 -166 -98 -182
-164 -3 -14 -9 -30 -13 -36 -4 -5 -7 -42 -6 -80 2 -54 9 -84 30 -125 29 -58
46 -75 89 -91 15 -6 27 -15 27 -20 0 -5 -11 -48 -25 -95 -14 -48 -28 -101 -31
-118 -3 -17 -9 -49 -14 -71 -5 -22 -11 -65 -15 -95 -3 -30 -8 -66 -10 -80 -24
-164 -24 -524 0 -610 2 -8 7 -40 10 -70 10 -97 55 -279 102 -414 206 -589 692
-1115 1253 -1357 52 -22 104 -44 115 -49 90 -40 405 -121 522 -135 26 -3 75
-9 108 -14 62 -9 415 -6 474 3 491 78 795 197 1134 444 116 84 136 102 273
237 105 104 220 245 312 381 69 103 144 245 191 359 17 44 36 89 41 100 5 11
18 52 30 90 11 39 25 84 30 100 11 37 46 213 54 275 10 68 18 132 21 165 5 48
5 305 1 360 -7 70 -25 226 -30 251 -2 12 -7 37 -10 55 -6 36 -38 172 -54 229
-5 19 -11 41 -13 49 -2 7 11 22 30 33 73 42 111 124 107 234 -7 161 -130 277
-279 261 -46 -5 -48 -5 -33 12 43 47 67 148 54 223 -12 73 -32 111 -80 158
-67 67 -156 91 -234 64 -43 -15 -65 -18 -48 -6 6 4 16 30 22 57 31 148 -54
299 -188 335 -73 20 -180 -7 -219 -54 -19 -23 -27 -20 -25 11 2 46 -31 156
-60 202 -96 152 -267 181 -392 67 l-48 -43 -18 54 c-26 75 -62 127 -119 169
-106 78 -237 60 -330 -44 -23 -26 -46 -59 -51 -74 -10 -29 -25 -38 -25 -15 0
28 -44 109 -83 150 -22 25 -61 55 -86 66 -50 24 -157 34 -216 20z m-974 -1474
c95 -34 328 -99 391 -108 17 -3 73 -12 125 -21 163 -26 246 -31 545 -30 338 0
421 7 635 50 41 9 86 18 100 20 57 11 219 58 308 90 52 19 96 33 97 32 55 -92
110 -174 116 -176 5 -2 9 -8 9 -14 0 -15 95 -123 190 -216 180 -177 337 -246
470 -206 58 18 57 18 63 -8 3 -13 12 -48 20 -78 22 -78 47 -214 53 -290 3 -36
8 -68 10 -72 6 -9 5 -205 0 -248 -3 -19 -7 -57 -10 -85 -48 -458 -289 -958
-617 -1277 -78 -76 -263 -221 -317 -249 -15 -8 -46 -27 -69 -42 -66 -43 -298
-151 -398 -185 -112 -38 -266 -76 -365 -92 -41 -6 -86 -14 -100 -17 -57 -11
-302 -10 -395 3 -112 14 -120 16 -225 39 -97 21 -84 18 -170 44 -443 138 -846
425 -1081 771 -24 36 -46 67 -49 70 -15 13 -105 177 -149 270 -57 122 -101
243 -135 373 -20 78 -29 122 -52 249 -21 124 -21 383 1 498 3 13 7 42 11 65 7
50 41 199 55 242 9 29 13 32 31 22 12 -6 51 -12 87 -12 179 -2 377 148 619
468 4 6 28 43 52 83 25 39 45 72 45 72 0 0 45 -16 99 -35z"/>
<path d="M1394 2645 c-141 -38 -284 -132 -377 -248 -46 -58 -37 -116 21 -138
29 -11 87 11 97 38 4 10 29 38 56 62 l49 44 -15 -44 c-49 -139 15 -298 149
-366 68 -35 177 -38 249 -5 65 29 130 98 155 163 24 65 24 167 0 217 -25 48
-7 39 60 -32 73 -79 92 -89 128 -76 37 14 53 38 54 77 0 27 -12 45 -77 110
-95 95 -173 148 -267 181 -84 30 -205 37 -282 17z"/>
<path d="M3369 2645 c-130 -35 -264 -126 -363 -244 -44 -52 -46 -83 -6 -122
41 -42 70 -32 151 52 36 38 69 69 72 69 4 0 0 -15 -10 -32 -25 -48 -22 -169 5
-230 76 -170 300 -227 449 -115 101 77 142 216 100 335 -18 52 -14 49 79 -45
34 -35 67 -63 74 -63 7 0 27 7 45 16 37 17 52 62 33 97 -18 34 -97 115 -160
164 -52 40 -168 102 -200 107 -7 1 -19 5 -26 10 -23 14 -194 15 -243 1z"/>
<path d="M1247 1710 c-21 -17 -25 -27 -22 -67 4 -86 45 -216 106 -339 33 -67
68 -130 77 -140 10 -11 32 -39 50 -64 47 -65 220 -230 241 -230 5 0 11 -4 13
-8 11 -28 230 -143 343 -181 69 -23 186 -52 230 -57 215 -27 365 -19 548 26
92 23 234 78 317 124 241 131 452 360 544 591 16 39 32 79 37 90 12 30 38 146
39 180 4 58 0 66 -34 80 -29 12 -40 13 -68 1 -18 -7 -42 -17 -53 -21 -11 -4
-24 -9 -30 -10 -5 -2 -38 -12 -72 -24 -146 -49 -412 -108 -568 -126 -27 -3
-66 -7 -85 -10 -131 -17 -483 -23 -610 -11 -30 3 -82 8 -115 11 -60 6 -227 30
-275 40 -14 2 -50 10 -80 16 -92 18 -293 73 -350 96 -8 4 -17 7 -20 8 -3 1
-14 5 -25 9 -112 43 -104 42 -138 16z m367 -341 c21 -6 46 -12 55 -14 9 -2 46
-11 83 -19 83 -20 204 -42 278 -51 30 -4 62 -9 70 -10 123 -23 586 -23 765 0
17 2 55 7 85 10 30 4 57 8 60 10 3 2 29 6 59 10 30 4 63 9 75 11 12 3 44 9 71
14 55 11 83 17 118 25 101 25 100 27 33 -65 -196 -270 -536 -443 -867 -442
-84 0 -195 18 -294 45 -27 8 -71 20 -97 28 -27 7 -48 17 -48 21 0 4 -7 8 -16
8 -21 0 -135 62 -209 115 -102 72 -197 174 -268 288 -20 31 -14 33 47 16z"/>
</g>
</svg>
