<?xml version="1.0" encoding="utf-8"?>
<!-- Generator: Adobe Illustrator 16.0.0, SVG Export Plug-In . SVG Version: 6.00 Build 0)  -->
<!DOCTYPE svg PUBLIC "-//W3C//DTD SVG 1.1//EN" "http://www.w3.org/Graphics/SVG/1.1/DTD/svg11.dtd">
<svg version="1.1" id="Layer_1" xmlns="http://www.w3.org/2000/svg" xmlns:xlink="http://www.w3.org/1999/xlink" x="0px" y="0px"
	 width="811.111px" height="850.715px" viewBox="0 0 811.111 850.715" enable-background="new 0 0 811.111 850.715"
	 xml:space="preserve">
<path id="_x3C_Path_x3E__1_" fill="#00F5FF" d="M601.485,564.811c-1.851-0.391-3.689-0.541-5.489-0.471h-0.141
	c-4.271-0.08-8.609,1.061-12.479,3.539c-27.28,17.48-123.4,26.73-177.58,28.461c-0.08,0-0.16,0.01-0.24,0.01s-0.16-0.01-0.239-0.01
	c-54.181-1.729-150.3-10.979-177.581-28.461c-3.87-2.479-8.21-3.619-12.48-3.539h-0.14c-1.8-0.07-3.64,0.08-5.49,0.471
	c-12.16,2.561-19.94,14.5-17.38,26.658c14.48,68.691,56.67,117.973,122.02,142.5c38.83,14.58,74.79,16.102,88.09,16.102
	c1.28,0,2.36-0.01,3.2-0.039c0.84,0.029,1.92,0.039,3.2,0.039c13.29,0,49.26-1.521,88.09-16.102
	c65.34-24.527,107.54-73.809,122.021-142.5C621.426,579.311,613.646,567.37,601.485,564.811z M482.346,691.34
	c-33.229,12.76-64.729,13.74-74.02,13.721c-0.9-0.08-1.82-0.092-2.75-0.039h-0.04c-0.93-0.053-1.851-0.041-2.76,0.039
	c-9.301,0.02-40.801-0.961-74.011-13.721c-35.87-13.779-62-36.479-78.07-67.729c19.63,4.729,43.86,8.648,72.951,11.83
	c42.3,4.629,78.699,5.83,80.229,5.879c0.25,0,0.49,0.01,0.73,0.01c0.319,0,0.63-0.01,0.949-0.029c0.32,0.021,0.63,0.029,0.95,0.029
	c0.24,0,0.48-0.01,0.73-0.01c1.528-0.049,37.93-1.25,80.22-5.879c29.1-3.182,53.33-7.102,72.96-11.83
	C544.346,654.86,518.216,677.561,482.346,691.34z"/>
<g>
	<path fill="#00F5FF" d="M317.966,443.661c3.72,4.719,3.72,12.359,0,17.07c-3.721,4.709-9.74,4.709-13.46,0
		c-8.58-10.881-18.471-19.141-29.07-24.781c6.71,8.311,10.72,18.871,10.72,30.371c0,26.738-21.68,48.42-48.42,48.42
		c-26.729,0-48.41-21.682-48.41-48.42c0-10.352,3.261-19.961,8.8-27.83c-9.81,5.889-19.02,13.99-27.149,24.299
		c-1.86,2.361-4.3,3.541-6.73,3.541c-2.439,0-4.87-1.18-6.729-3.541c-3.72-4.709-3.72-12.35,0-17.059
		c21.63-27.431,50.21-42.761,80.46-43.191C268.306,402.13,296.716,416.72,317.966,443.661z"/>
	<path fill="#00F5FF" d="M653.596,462.79c-1.859,2.361-4.29,3.541-6.729,3.541c-2.431,0-4.869-1.18-6.729-3.541
		c-8.13-10.309-17.34-18.41-27.149-24.299c5.54,7.869,8.801,17.479,8.801,27.83c0,26.738-21.681,48.42-48.421,48.42
		c-26.729,0-48.409-21.682-48.409-48.42c0-11.5,4.01-22.061,10.72-30.371c-10.6,5.641-20.49,13.9-29.069,24.781
		c-3.721,4.709-9.75,4.709-13.46,0c-3.721-4.711-3.721-12.352,0-17.07c21.25-26.94,49.659-41.531,79.989-41.121
		c30.25,0.43,58.83,15.76,80.46,43.191C657.315,450.44,657.315,458.081,653.596,462.79z"/>
</g>
<path id="_x3C_Path_x3E_" fill="#00F5FF" d="M405.556,89.604c48.021,0,94.581,9.394,138.384,27.921
	c42.334,17.905,80.362,43.549,113.032,76.219s58.313,70.7,76.22,113.033c18.526,43.803,27.921,90.361,27.921,138.384
	c0,48.02-9.395,94.58-27.921,138.383c-17.905,42.334-43.55,80.363-76.22,113.033s-70.698,58.313-113.032,76.219
	c-43.803,18.527-90.361,27.92-138.384,27.92c-48.021,0-94.581-9.393-138.383-27.92c-42.333-17.906-80.363-43.549-113.033-76.219
	c-32.669-32.67-58.313-70.699-76.219-113.033C59.394,539.741,50,493.182,50,445.161c0-48.022,9.394-94.582,27.921-138.384
	c17.905-42.333,43.549-80.363,76.219-113.033c32.67-32.669,70.7-58.313,113.033-76.219
	C310.975,98.999,357.534,89.604,405.556,89.604 M405.556,39.604C181.573,39.604,0,221.178,0,445.161
	c0,223.98,181.573,405.555,405.556,405.555c223.983,0,405.556-181.572,405.556-405.555
	C811.111,221.177,629.538,39.604,405.556,39.604L405.556,39.604z"/>
<path fill="#00F5FF" d="M791.788,320.51c-3.75,3.83-7.801,7.13-12.03,9.89c-2.189,3.86-5.561,7.31-10.24,10.31
	c-87.5,56.04-161.8-81.51-161.8-81.51c-6.05-16.21-19.601-6.61-19.601-6.61c-77.521,29.53-171.68,28.43-182.561,28.2
	c-10.88,0.23-105.04,1.33-182.56-28.2c0,0-13.55-9.6-19.6,6.61c0,0-74.3,137.55-161.8,81.51c-4.68-3-8.05-6.45-10.24-10.31
	c-4.23-2.76-8.28-6.06-12.03-9.89c-22.6-23.09-25.72-56.67-6.98-75.01c10.83-10.6,26.59-13.78,42.33-10.12
	c-1.57-3.09-2.95-6.35-4.12-9.77c-10.43-30.58,0.39-61.94,24.17-70.05c10.59-3.61,21.97-2,32.25,3.6c-0.15-0.49-0.29-0.98-0.43-1.48
	c-8.56-31.16,4.14-61.81,28.36-68.46c15.02-4.12,30.94,1.94,42.92,14.58c-3.74-30.92,14.87-59.03,42.48-63.46
	c15.34-2.46,30.31,2.89,41.64,13.36c4.85-21.15,20.41-37.85,41.09-41.26c19.5-3.22,38.479,6.21,50.15,22.79
	C361.797,14.5,381.567,0,404.577,0c0.33,0,0.649,0,0.979,0.01c0.33-0.01,0.65-0.01,0.98-0.01c23.011,0,42.78,14.5,51.391,35.23
	c11.66-16.58,30.641-26.01,50.15-22.79c20.68,3.41,36.239,20.11,41.09,41.26c11.33-10.47,26.3-15.82,41.64-13.36
	c27.61,4.43,46.221,32.54,42.48,63.46c11.979-12.64,27.899-18.7,42.92-14.58c24.22,6.65,36.92,37.3,28.359,68.46
	c-0.141,0.5-0.279,0.99-0.431,1.48c10.28-5.6,21.66-7.21,32.25-3.6c23.78,8.11,34.601,39.47,24.17,70.05
	c-1.17,3.42-2.55,6.68-4.119,9.77c15.739-3.66,31.5-0.48,42.329,10.12C817.508,263.84,814.378,297.42,791.788,320.51z"/>
</svg>
