<?xml version="1.0" encoding="utf-8"?>
<!-- Generator: Adobe Illustrator 16.0.0, SVG Export Plug-In . SVG Version: 6.00 Build 0)  -->
<!DOCTYPE svg PUBLIC "-//W3C//DTD SVG 1.1//EN" "http://www.w3.org/Graphics/SVG/1.1/DTD/svg11.dtd">
<svg version="1.1" id="Layer_1" xmlns="http://www.w3.org/2000/svg" xmlns:xlink="http://www.w3.org/1999/xlink" x="0px" y="0px"
	 width="476.451px" height="500px" viewBox="0 0 476.451 500" enable-background="new 0 0 476.451 500" xml:space="preserve">
<g>
	<path fill-rule="evenodd" clip-rule="evenodd" fill="#4DBFA5" d="M364.901,336.983c-0.599,9.388-3.521,18.288-7.249,26.895
		c-8.847,20.42-22.366,37.093-40.421,50.162c-17.315,12.534-36.584,20.217-57.479,24.049c-2.558,0.472-5.212,0.476-7.824,0.704
		c-2.979,0.265-6.004,0.314-8.923,0.874c-3.392,0.65-6.66,0.638-10.013-0.127c-1.813-0.413-3.714-0.523-5.58-0.62
		c-28.681-1.493-53.812-12.125-75.8-30.224c-15.907-13.094-27.682-29.403-35.219-48.696c-2.742-7.011-4.069-14.389-5.931-21.626
		c-0.092-0.357-0.05-0.749-0.092-1.122c-0.792-7.06,3.646-10.775,10.355-8.534c3.542,1.178,6.951,2.756,10.485,3.967
		c15.229,5.214,30.792,9.013,46.659,11.848c7.738,1.387,15.616,1.679,23.281,3.532c2.508,0.605,5.221,0.318,7.842,0.483
		c8.22,0.518,16.475,0.301,24.666,1.518c2.56,0.38,5.237,0.137,7.852-0.01c5.229-0.293,10.456-1.039,15.687-1.02
		c11.284,0.044,22.418-1.654,33.508-3.217c9.196-1.298,18.39-3.116,27.44-5.522c11.935-3.171,23.759-6.623,35.347-10.893
		c1.723-0.636,3.578-1.053,5.408-1.258c3.075-0.345,5.896,2.279,5.996,5.366C364.94,334.631,364.901,335.751,364.901,336.983z
		 M144.491,363.624c0.037,0.378-0.036,0.813,0.132,1.111c6.308,11.325,15.049,20.571,25.321,28.215
		c19.462,14.484,41.805,21.106,65.74,22.962c7.551,0.587,14.916-0.563,22.26-2.109c11.773-2.481,23.094-6.386,33.5-12.352
		c14.466-8.299,26.576-19.371,35.772-33.445c0.39-0.595,0.736-1.385,0.687-2.055c-0.042-0.557-0.625-1.426-1.105-1.524
		c-1.045-0.223-2.215-0.218-3.272-0.017c-9.889,1.868-19.73,4.037-29.668,5.643c-9.576,1.538-19.145,3.325-28.909,3.483
		c-4.484,0.075-9.04-0.001-13.438,0.732c-8.957,1.498-18,1.602-26.858,0.548c-11.882-1.416-23.979-0.403-35.682-3.431
		c-7.173-0.062-14.002-2.164-20.926-3.648c-7.285-1.565-14.502-3.456-21.773-5.098C145.777,362.525,145.089,363.278,144.491,363.624
		z"/>
	<path fill-rule="evenodd" clip-rule="evenodd" fill="#4DBFA5" d="M167.274,263.617c-0.858,1.392-0.721,2.91-0.221,4.312
		c2.451,6.866,0.874,13.316-2.161,19.5c-3.239,6.6-8.24,11.362-15.148,14.265c-10.612,4.454-24.825,2.133-32.935-6.993
		c-3.241-3.642-5.7-7.762-7.034-12.601c-1.226-4.449-1.8-8.739-0.345-13.216c0.546-1.679,1.215-3.502-0.22-5.173
		c-2.779,0.631-4.181,3.018-6.035,4.79c-1.616,1.545-3.057,3.272-4.776,5.142c-1.277,0.229-2.722,0.689-4.168,0.714
		c-6.814,0.12-8.193-7.002-6.122-11.396c0.314-0.668,0.798-1.271,1.268-1.846c8.933-10.949,19.835-19.224,33.203-23.951
		c5.631-1.991,11.451-3.487,17.525-3.056c7.499,0.537,14.766,2.221,21.473,5.65c10.115,5.165,18.603,12.425,25.863,21.136
		c0.708,0.852,1.238,1.861,1.794,2.831c1.75,3.068,1.042,6.316-1.933,8.983c-2.355,2.112-7.188,2.321-9.324,0.236
		c-2.404-2.347-4.652-4.859-6.983-7.284C169.971,264.592,168.885,263.613,167.274,263.617z"/>
	<path fill-rule="evenodd" clip-rule="evenodd" fill="#4DBFA5" d="M308.21,263.023c-1.219,0.8-2.596,1.442-3.626,2.441
		c-2.681,2.608-5.205,5.379-8.052,8.354c-1.632,0.131-3.511,0.632-5.278,0.356c-4.304-0.664-6.99-5.565-5.325-9.438
		c0.585-1.364,1.297-2.734,2.229-3.875c8.433-10.328,18.505-18.49,31.052-23.344c11.276-4.366,22.499-4.477,33.932-0.27
		c13.773,5.068,24.729,13.794,33.878,25.043c2.645,3.258,2.401,6.735-0.581,10.149c-1.023,1.177-2.357,1.858-3.916,1.896
		c-1.479,0.034-2.965-0.103-3.912-0.145c-3.443-1.507-4.682-4.451-6.766-6.558c-1.316-1.328-2.593-2.721-4.596-2.989
		c-0.506-0.48-0.947-1.265-1.53-1.382c-1.138-0.233-0.965,0.969,0.494,2.403c0.132,2.615,0.253,5.229,0.395,7.844
		c0.583,10.854-5.733,24.81-21.596,29.313c-8.876,2.519-17.879,1.564-25.468-4.658c-2.294-1.884-4.396-4.073-6.294-6.361
		c-3.452-4.149-5.322-9.001-5.369-14.443c-0.028-2.989,0.188-5.98,0.231-8.973c0.027-1.852-0.047-3.703-0.076-5.561
		c0.299-0.033,0.638,0,0.893-0.126c0.167-0.077,0.214-0.396,0.318-0.604C308.899,262.406,308.553,262.712,308.21,263.023z"/>
	<path fill-rule="evenodd" clip-rule="evenodd" fill="#4DBFA5" d="M416.504,89.829c2.604-0.112,5.218-0.355,7.816-0.315
		c9.301,0.143,16.582,4.056,21.492,12.035c5.508,8.954,5.91,18.32,2.059,28.011c-0.8,2.017-2.581,3.762-1.847,6.59
		c2.099,0.111,4.322,0.365,6.532,0.315c6.524-0.15,11.758,2.931,15.788,7.442c10.311,11.539,10.943,26.414,0.991,38.974
		c-0.909,1.146-2.262,1.94-3.426,2.874c-0.871,0.693-1.786,1.313-2.632,2.028c-0.256,0.211-0.342,0.625-0.786,1.503
		c0.314,1.704,0.497,3.964,1.165,6.074c4.078,12.916,5.861,26.289,8.029,39.587c0.358,2.216,0.444,4.48,0.57,6.727
		c0.435,7.488,1.133,14.978,1.148,22.466c0.02,7.486-0.446,14.996-1.088,22.463c-0.571,6.71-1.405,13.419-2.571,20.051
		c-4.323,24.522-11.946,47.974-24.021,69.801c-17.873,32.312-41.484,59.58-71.846,80.798c-9.836,6.877-19.929,13.337-30.704,18.618
		c-14.807,7.264-30.192,12.969-46.239,16.908c-9.808,2.407-19.706,4.315-29.644,6.008c-2.576,0.438-5.208,0.615-7.825,0.731
		c-13.857,0.646-27.72,0.629-41.581,0.043c-9.394-0.395-18.504-2.544-27.643-4.46c-16.132-3.378-31.781-8.237-46.947-14.793
		c-13.129-5.676-25.394-12.822-37.163-20.822c-12.723-8.653-24.55-18.43-35.301-29.52c-27.636-28.518-47.676-61.46-58.403-99.861
		c-2.618-9.37-4.142-18.991-6.014-28.538c-2.181-11.134-1.602-22.429-3.213-33.56c-0.368-2.562-0.032-5.245,0.134-7.863
		c0.25-4.113,0.732-8.214,0.942-12.329c0.878-16.905,3.834-33.462,8.153-49.799c0.761-2.871,1.363-5.785,2.04-8.689
		c-0.878-1.044-1.406-2.2-2.288-2.633c-7.138-3.501-10.06-10.058-11.534-17.102c-1.951-9.322,0.528-17.906,6.807-25.138
		c4.353-5.018,9.84-7.969,16.68-8.01c2.177-0.015,4.432,0.433,6.803-0.708c-1.273-3.179-2.724-6.212-3.693-9.393
		c-0.869-2.847-1.203-5.857-1.776-8.807c0.491-2.601,0.906-5.19,1.477-7.749c1.636-7.359,5.95-12.861,12.171-16.866
		c3.507-2.256,7.385-3.627,11.672-3.434c2.915,0.131,5.831,0.216,8.929,0.33c1.865-3.967,0.079-7.565-0.199-11.458
		c0.329-1.928,0.674-4.146,1.096-6.351c1.331-6.999,5.167-12.469,10.831-16.519c7.275-5.199,15.124-5.843,23.37-2.171
		c2.642,1.175,4.664,3.733,8.069,3.62c0.657-2.881,1.306-5.776,1.982-8.666c0.254-1.095,0.523-2.193,0.88-3.257
		c2.04-6.135,5.07-11.62,9.853-16.128c3.695-3.48,8.099-5.445,12.865-6.506c5.786-1.29,11.143,0.352,16.018,3.554
		c2.501,1.64,4.846,3.518,7.354,5.144c0.459,0.294,1.374-0.118,2.258-0.227c0.814-1.988,1.673-4.053,2.505-6.127
		c1.857-4.63,4.971-8.317,8.504-11.75c3.636-3.534,8.096-5.414,12.875-6.456c3.287-0.715,6.672-0.526,9.958,0.689
		c5.409,1.997,9.969,5.111,13.457,9.726c1.574,2.081,3.065,4.225,4.638,6.305c0.161,0.209,0.652,0.167,1.331,0.314
		c0.516-0.721,1.339-1.475,1.665-2.401c1.783-5.055,4.548-9.448,8.443-13.112c7.005-6.586,15.268-9.288,24.748-7.504
		c3.267,0.616,6.658,0.759,9.763,2.411c5.118,2.726,9.167,6.471,11.985,11.507c1.643,2.934,3.095,5.974,4.628,8.962
		c0.694-0.233,1.556-0.26,1.944-0.704c1.227-1.398,2.375-2.895,3.381-4.46c3.389-5.271,8.183-8.616,13.987-10.765
		c4.796-1.776,9.425-1.689,14.221,0.111c7.39,2.772,12.804,7.646,16.302,14.65c1.629,3.26,2.96,6.667,4.403,9.954
		c2.274-0.269,3.347-1.949,4.716-3.175c3.126-2.804,6.772-4.626,10.692-6.027c3.67-1.309,7.395-1.396,11.043-0.318
		c7.458,2.212,13.443,6.492,17.392,13.349c2.253,3.911,4.081,7.953,4.909,12.483c0.526,2.88,0.866,5.92,2.529,8.497
		c2.415-0.178,3.887-2.049,5.792-3.098c12.053-6.625,26.424-0.958,32.206,9.258c2.853,5.032,4.602,10.225,4.328,16.035
		c-0.163,3.365-0.318,6.732-0.481,10.097c-1.509,0.917-1.76,1.68-0.594,1.717C416.136,91.048,416.514,90.604,416.504,89.829z
		 M39.834,206.604c-4.362,13.023-6.601,25.499-8.169,38.098c-0.739,5.945-0.367,11.99-1.552,17.919
		c-0.284,1.416,0.059,2.975,0.198,4.462c0.238,2.607,0.68,5.207,0.789,7.821c0.702,16.582,4.286,32.614,9.057,48.434
		c6.098,20.244,15.238,39.055,26.748,56.721c10.932,16.771,24.056,31.629,39.73,44.09c17.091,13.584,35.68,24.689,56.051,32.67
		c12.539,4.914,25.279,9.145,38.615,11.338c5.683,2.294,11.871,1.499,17.677,2.861c4.439,1.041,8.888,1.238,13.379,1.336
		c9.737,0.212,19.372-0.35,29.075-1.729c10.764-1.531,21.305-3.735,31.742-6.639c18.489-5.137,35.847-12.897,52.309-22.711
		c10.954-6.532,21.34-13.881,30.916-22.335c15.298-13.503,27.91-29.183,38.411-46.689c9.694-16.161,17.165-33.244,22.736-51.211
		c5.698-18.368,7.803-37.322,9.307-56.381c0.081-1.105-0.159-2.233-0.252-3.35c-0.355-4.105-0.728-8.21-1.066-12.314
		c-0.214-2.619-0.17-5.276-0.608-7.853c-1.819-10.696-3.793-21.373-6.797-31.82c-0.443-1.552-1.395-2.581-3.342-3.166
		c-1.095,0.149-2.565,0.305-4.021,0.559c-11.784,2.046-22.189-1.379-31.791-8.003c-0.619-0.425-1.255-0.83-1.834-1.303
		c-5.501-4.517-11.173-8.854-15.97-14.155c-8.797-9.72-17.72-19.345-24.031-31.016c-1.06-1.953-2.518-3.749-4.071-5.343
		c-0.65-0.669-2.038-0.87-3.08-0.835c-1.067,0.036-2.131,0.602-3.181,0.972c-15.505,5.49-31.182,10.35-47.504,12.822
		c-4.957,2.117-10.408,1.22-15.462,2.473c-5.538,1.372-11.111,1.58-16.722,1.668c-11.607,0.183-23.22,0.362-34.831,0.29
		c-14.954-0.092-29.969,0.643-44.764-2.455c-6.795-0.064-13.3-2.013-19.868-3.336c-12.816-2.583-25.438-6.118-37.646-10.8
		c-7.233-2.777-8.033-2.048-11.554,3.897c-1.144,1.935-2.421,3.791-3.646,5.676c-7.804,12.01-17.122,22.751-27.608,32.452
		c-5.782,5.344-12.081,10.022-19.194,13.583c-5.499,2.755-11.21,4.093-17.313,3.867C47.35,207.043,44.006,206.825,39.834,206.604z"
		/>
</g>
</svg>
